PathFileType	4	(X/Y/Z)	 s07c0402.trc
DataRate	CameraRate	NumFrames	NumMarkers	Units	OrigDataRate	OrigDataStartFrame	OrigNumFrames
200	200	4	48	mm	200	501	2000
Frame#	Time	racr			lacr			c7			jug			rlel			rdr			llel			ldr			s2			lic			ric			lasi			rasi			rpsi			lpsi			rgt			lgt			rth1			rth2			rth3			rth4			rlfc			rmfc			rsh1			rsh2			rsh3			rsh4			rlmal			rcal			rtoe			rmt5			lth1			lth2			lth4			lth3			llfc			lmfc			lsh1			lsh2			lsh3			lsh4			llmal			lcal			ltoe			lmt5			SBIKE			LBIKE			RBIKE			
		X1	Y1	Z1	X2	Y2	Z2	X3	Y3	Z3	X4	Y4	Z4	X5	Y5	Z5	X6	Y6	Z6	X7	Y7	Z7	X8	Y8	Z8	X9	Y9	Z9	X10	Y10	Z10	X11	Y11	Z11	X12	Y12	Z12	X13	Y13	Z13	X14	Y14	Z14	X15	Y15	Z15	X16	Y16	Z16	X17	Y17	Z17	X18	Y18	Z18	X19	Y19	Z19	X20	Y20	Z20	X21	Y21	Z21	X22	Y22	Z22	X23	Y23	Z23	X24	Y24	Z24	X25	Y25	Z25	X26	Y26	Z26	X27	Y27	Z27	X28	Y28	Z28	X29	Y29	Z29	X30	Y30	Z30	X31	Y31	Z31	X32	Y32	Z32	X33	Y33	Z33	X34	Y34	Z34	X35	Y35	Z35	X36	Y36	Z36	X37	Y37	Z37	X38	Y38	Z38	X39	Y39	Z39	X40	Y40	Z40	X41	Y41	Z41	X42	Y42	Z42	X43	Y43	Z43	X44	Y44	Z44	X45	Y45	Z45	X46	Y46	Z46	X47	Y47	Z47	X48	Y48	Z48	
501	2.5050	692.076164	1411.823109	-1.909170	701.575186	1435.343899	-309.062780	670.228244	1478.361516	-148.984181	644.394943	1329.642208	-166.795476	488.952561	1116.193501	83.864355	690.280475	942.681947	-38.857686	543.658688	1176.354933	-501.546234	697.772240	940.072867	-421.430810	106.650734	1249.474728	-240.996814	284.339486	1281.135777	-368.057807	267.452488	1259.372816	-76.831275	297.976140	1198.853981	-345.404918	282.803746	1209.319986	-96.654571	135.552746	1283.773248	-187.644824	155.946629	1292.541929	-294.378876	195.533535	1143.592790	-43.874653	208.098333	1130.155552	-406.564164	289.139497	1009.442468	-37.344999	346.426062	943.153644	-46.858626	365.650221	859.715231	-48.351666	377.090428	959.894307	-60.559739	418.097539	732.450041	-80.833345	406.390078	719.948718	-183.259772	352.331666	603.897861	-56.856867	333.223536	518.499980	-77.590157	278.154639	451.767968	-73.874940	347.913750	516.270898	-115.066882	211.621193	326.342364	-75.980244	142.992003	281.261806	-105.216577	433.495875	283.708835	-116.747875	358.594581	243.121723	-47.852884	268.875363	1024.495762	-409.581897	336.489419	968.310052	-405.108041	364.260636	987.973663	-393.545897	367.272474	884.961066	-404.013153	432.088208	722.045262	-379.071282	412.016838	707.391713	-279.088176	298.120445	652.422132	-398.963561	231.315491	600.958109	-380.939586	142.325692	585.879189	-390.259832	238.038605	602.743935	-338.580260	17.414003	536.566720	-393.695712	-62.492381	552.464879	-358.431771	138.964712	344.814893	-356.293046	62.973317	380.661019	-418.846834	-258.580566	972.089872	-232.440749	-75.836320	83.611224	-438.331645	-82.754248	79.216529	-40.909478	
502	2.5100	693.156933	1412.516235	-3.196801	700.781571	1437.223097	-310.292761	669.896383	1479.431014	-150.360439	645.297308	1330.133774	-167.675413	490.170229	1117.134107	83.738860	689.959027	942.086110	-39.367315	543.830968	1176.770226	-501.473273	697.864791	940.151741	-421.382895	107.291136	1246.404476	-240.502761	284.687843	1279.497690	-367.709223	269.084019	1256.194509	-76.483549	298.874606	1197.188462	-345.188219	283.873983	1205.919463	-96.201527	136.262469	1280.608815	-186.926231	156.297796	1289.750531	-293.709021	196.292735	1139.802764	-43.835721	209.615803	1128.340744	-406.729575	287.842292	1004.058058	-37.607159	343.906947	936.781818	-47.354595	361.530546	852.950138	-49.195471	374.964233	952.935634	-61.017561	412.677373	725.447554	-81.585375	400.385988	713.250980	-183.829541	347.356448	596.740846	-57.362831	328.651242	511.230247	-78.053188	273.975076	444.283895	-74.165707	343.305869	508.245219	-116.545532	207.800065	318.671775	-75.833503	138.872612	273.893734	-104.202791	429.986320	275.835969	-116.932850	355.082805	235.266491	-48.080198	271.820042	1023.499583	-410.182823	340.369165	968.464231	-406.133999	367.941781	988.648124	-394.881311	372.741315	885.607294	-404.612309	439.323016	723.875005	-379.741153	418.585302	708.528212	-280.900845	304.909500	655.801043	-399.843532	237.500253	605.248885	-381.654277	148.299516	591.367194	-390.800647	244.159272	607.184377	-339.078864	22.857978	543.756066	-394.001459	-56.509013	560.966944	-358.930972	142.793411	351.632572	-356.536325	66.858911	387.690790	-419.091879	-258.553666	972.081773	-232.473651	-75.805974	83.599984	-438.343690	-82.770366	79.233826	-40.912368	
503	2.5150	694.052601	1413.465861	-4.539764	699.969123	1439.216549	-311.604096	669.487486	1480.524334	-151.776281	646.236205	1330.723158	-168.966236	491.653675	1118.069515	83.544160	689.601445	941.450392	-40.086347	544.022275	1177.199066	-501.460020	697.954043	940.125623	-421.538023	108.070870	1243.343315	-240.121666	285.045469	1277.931443	-367.203031	270.817449	1253.231782	-76.222087	299.752965	1195.629604	-345.103689	284.987981	1202.692562	-95.748624	136.959590	1277.601017	-186.172721	156.591552	1287.040908	-292.908487	196.993271	1136.016725	-43.733056	211.145769	1126.600104	-407.023892	286.611004	998.855953	-37.872040	341.387998	930.698098	-47.596586	357.166925	846.535618	-50.049056	372.763033	946.209054	-61.314686	407.119746	718.464552	-82.432213	395.765223	706.332858	-183.685059	342.304374	589.800294	-57.895003	323.939414	504.149481	-78.537687	269.606666	436.915949	-74.446591	338.376713	501.932863	-116.350833	203.866404	310.644428	-76.057243	134.959872	266.210885	-104.141239	426.081189	267.972536	-117.106000	351.133572	227.534017	-48.228172	274.714986	1022.718292	-410.912576	344.247673	968.807932	-407.268605	371.558063	989.516970	-396.341744	377.944312	886.561890	-405.912409	446.664277	726.122134	-380.356050	427.495051	711.512374	-281.291164	311.957402	659.287130	-400.615244	243.877817	609.639520	-382.208893	154.495387	596.928795	-391.303364	250.456151	611.673388	-339.561083	28.687072	551.119235	-394.378991	-50.618496	569.268470	-359.301635	146.750441	358.049387	-356.578356	71.094870	394.663515	-419.230300	-258.520859	972.067464	-232.466305	-75.792041	83.594406	-438.348407	-82.740011	79.208753	-40.914909	
504	2.5200	694.854014	1414.579412	-5.924269	699.148605	1441.344532	-313.144828	669.065084	1481.955865	-153.417809	648.258102	1331.615607	-171.351889	493.313693	1119.132828	83.398769	689.211082	940.774009	-40.863071	544.348312	1177.551836	-501.436946	697.992609	940.014083	-421.805466	108.801409	1240.552395	-239.695177	285.414272	1276.297694	-366.995235	272.520203	1250.334453	-75.924197	300.593785	1194.231163	-344.995261	286.161645	1199.749408	-95.315734	137.726544	1274.720105	-185.444695	156.509902	1284.707191	-292.353109	197.726299	1132.477830	-43.653445	212.630412	1125.021140	-407.204797	285.301165	993.938593	-38.129640	338.799070	924.672915	-47.991901	352.890710	840.317401	-50.747214	370.468467	939.699094	-61.578592	401.352830	711.925623	-83.238951	388.142516	699.665392	-185.080151	337.019602	582.949005	-58.362862	318.934940	497.325192	-79.027803	265.025104	429.841373	-74.787355	333.286199	495.223087	-116.598256	199.643649	303.384748	-76.068850	130.653147	259.107087	-104.014664	422.254828	261.558715	-116.930727	346.820497	220.094421	-48.384291	277.462839	1022.100710	-411.796397	348.024232	969.458630	-408.571508	375.030583	990.658223	-397.831002	383.130241	887.701053	-407.249899	454.397377	728.858774	-381.871488	435.469742	714.342706	-282.330383	319.140292	663.029091	-401.372412	250.539174	614.011805	-382.643404	161.034334	602.403975	-391.760690	256.914428	616.211336	-340.018840	34.803427	558.234203	-394.621134	-44.461663	577.412877	-359.653495	151.057623	364.331704	-356.633903	75.257576	401.781034	-419.081069	-258.500754	972.060503	-232.428830	-75.788642	83.579655	-438.356289	-82.744570	79.197697	-40.904829	
